<svg version="1.1" xmlns="http://www.w3.org/2000/svg" xmlns:xlink="http://www.w3.org/1999/xlink" x="0px" y="0px" viewBox="0 0 512.001 512.001" style="enable-background:new 0 0 512.001 512.001;" xml:space="preserve">
<g>
	<g>
		<path d="M115.714,88.182c-12.977,0-23.533,10.558-23.533,23.533s10.558,23.533,23.533,23.533
			c12.976,0,23.533-10.558,23.533-23.533S128.691,88.182,115.714,88.182z M115.714,120.249c-4.705,0-8.532-3.828-8.532-8.533
			c0-4.704,3.828-8.532,8.532-8.532s8.533,3.828,8.533,8.532C124.247,116.421,120.42,120.249,115.714,120.249z"></path>
	</g>
</g>
<g>
	<g>
		<path d="M292.08,88.182H163.814c-4.142,0-7.5,3.358-7.5,7.5s3.358,7.5,7.5,7.5H292.08c4.142,0,7.5-3.358,7.5-7.5
			S296.222,88.182,292.08,88.182z"></path>
	</g>
</g>
<g>
	<g>
		<path d="M179.847,120.249h-16.033c-4.142,0-7.5,3.358-7.5,7.5c0,4.142,3.358,7.5,7.5,7.5h16.033c4.142,0,7.5-3.358,7.5-7.5
			C187.348,123.607,183.99,120.249,179.847,120.249z"></path>
	</g>
</g>
<g>
	<g>
		<path d="M251.997,120.249h-40.083c-4.142,0-7.5,3.358-7.5,7.5c0,4.142,3.358,7.5,7.5,7.5h40.083c4.142,0,7.5-3.358,7.5-7.5
			C259.497,123.607,256.139,120.249,251.997,120.249z"></path>
	</g>
</g>
<g>
	<g>
		<path d="M115.714,176.366c-12.977,0-23.533,10.558-23.533,23.533c0,12.977,10.558,23.533,23.533,23.533
			c12.976,0,23.533-10.558,23.533-23.533C139.248,186.922,128.691,176.366,115.714,176.366z M115.714,208.432
			c-4.705,0-8.532-3.828-8.532-8.533c0-4.705,3.828-8.533,8.532-8.533s8.533,3.828,8.533,8.533
			C124.247,204.604,120.42,208.432,115.714,208.432z"></path>
	</g>
</g>
<g>
	<g>
		<path d="M292.08,176.366H163.814c-4.142,0-7.5,3.358-7.5,7.5c0,4.142,3.358,7.5,7.5,7.5H292.08c4.142,0,7.5-3.358,7.5-7.5
			C299.581,179.724,296.222,176.366,292.08,176.366z"></path>
	</g>
</g>
<g>
	<g>
		<path d="M179.847,208.432h-16.033c-4.142,0-7.5,3.358-7.5,7.5c0,4.142,3.358,7.5,7.5,7.5h16.033c4.142,0,7.5-3.358,7.5-7.5
			C187.348,211.79,183.99,208.432,179.847,208.432z"></path>
	</g>
</g>
<g>
	<g>
		<path d="M251.997,208.432h-40.083c-4.142,0-7.5,3.358-7.5,7.5c0,4.142,3.358,7.5,7.5,7.5h40.083c4.142,0,7.5-3.358,7.5-7.5
			C259.497,211.79,256.139,208.432,251.997,208.432z"></path>
	</g>
</g>
<g>
	<g>
		<path d="M115.714,264.548c-12.977,0-23.533,10.558-23.533,23.533c0,12.976,10.558,23.533,23.533,23.533
			c12.976,0,23.533-10.558,23.533-23.533C139.248,275.106,128.691,264.548,115.714,264.548z M115.714,296.615
			c-4.705,0-8.532-3.828-8.532-8.533s3.828-8.533,8.532-8.533s8.533,3.828,8.533,8.533S120.42,296.615,115.714,296.615z"></path>
	</g>
</g>
<g>
	<g>
		<path d="M292.08,264.548H163.814c-4.142,0-7.5,3.358-7.5,7.5c0,4.142,3.358,7.5,7.5,7.5H292.08c4.142,0,7.5-3.358,7.5-7.5
			C299.581,267.906,296.222,264.548,292.08,264.548z"></path>
	</g>
</g>
<g>
	<g>
		<path d="M179.847,296.615h-16.033c-4.142,0-7.5,3.358-7.5,7.5c0,4.142,3.358,7.5,7.5,7.5h16.033c4.142,0,7.5-3.358,7.5-7.5
			C187.348,299.973,183.99,296.615,179.847,296.615z"></path>
	</g>
</g>
<g>
	<g>
		<path d="M251.997,296.615h-40.083c-4.142,0-7.5,3.358-7.5,7.5c0,4.142,3.358,7.5,7.5,7.5h40.083c4.142,0,7.5-3.358,7.5-7.5
			S256.139,296.615,251.997,296.615z"></path>
	</g>
</g>
<g>
	<g>
		<path d="M332.164,0H59.598C46.622,0,36.065,10.558,36.065,23.533v352.731c0,12.977,10.558,23.533,23.533,23.533h142.295
			c4.142,0,7.5-3.358,7.5-7.5c0-4.142-3.358-7.5-7.5-7.5H59.598c-4.705,0-8.532-3.828-8.532-8.533V23.533
			c0-4.705,3.828-8.533,8.532-8.533h272.565c4.705,0,8.533,3.828,8.533,8.533v219.455c0,4.142,3.358,7.5,7.5,7.5
			c4.142,0,7.5-3.358,7.5-7.5V23.533C355.697,10.558,345.139,0,332.164,0z"></path>
	</g>
</g>
<g>
	<g>
		<path d="M474.77,359.317c-2.987-9.192-11.147-15.554-20.79-16.208l-60.728-4.117l-22.682-56.483
			c-3.602-8.969-12.174-14.764-21.838-14.764c-9.665,0-18.237,5.795-21.838,14.764l-22.682,56.483l-60.728,4.117
			c-9.643,0.654-17.803,7.015-20.79,16.208c-2.986,9.192-0.124,19.135,7.292,25.333l46.71,39.026l-14.85,59.028
			c-2.358,9.373,1.17,19.1,8.99,24.781c7.819,5.68,18.16,6.031,26.347,0.893l51.55-32.364l51.55,32.364
			c3.858,2.422,8.194,3.625,12.521,3.624c4.852,0,9.692-1.513,13.826-4.517c7.818-5.681,11.348-15.408,8.99-24.781l-14.85-59.028
			l46.71-39.026C474.894,378.452,477.756,368.508,474.77,359.317z M457.859,373.137l-50.323,42.046
			c-2.209,1.846-3.167,4.793-2.465,7.585l15.999,63.595c1.306,5.19-2.165,8.188-3.259,8.984c-1.094,0.795-5.02,3.17-9.553,0.324
			l-55.538-34.867c-1.219-0.765-2.604-1.148-3.988-1.148s-2.769,0.383-3.988,1.148l-55.538,34.867
			c-4.533,2.847-8.458,0.472-9.553-0.324c-1.095-0.795-4.565-3.794-3.259-8.984l15.999-63.594c0.702-2.792-0.255-5.74-2.465-7.585
			l-50.323-42.046c-4.107-3.431-3.062-7.898-2.644-9.185s2.197-5.514,7.537-5.876l65.426-4.436c2.872-0.195,5.38-2.017,6.453-4.688
			l24.438-60.853c1.994-4.967,6.564-5.353,7.917-5.353c1.353,0,5.923,0.386,7.917,5.353l24.438,60.853
			c1.073,2.671,3.581,4.493,6.453,4.688l65.426,4.436c5.34,0.362,7.119,4.589,7.537,5.876
			C460.921,365.239,461.966,369.705,457.859,373.137z"></path>
	</g>
</g>
<g>
</g>
<g>
</g>
<g>
</g>
<g>
</g>
<g>
</g>
<g>
</g>
<g>
</g>
<g>
</g>
<g>
</g>
<g>
</g>
<g>
</g>
<g>
</g>
<g>
</g>
<g>
</g>
<g>
</g>
</svg>